<?xml version="1.0" encoding="utf-8"?>
<!-- Generator: Adobe Illustrator 18.0.0, SVG Export Plug-In . SVG Version: 6.00 Build 0)  -->
<!DOCTYPE svg PUBLIC "-//W3C//DTD SVG 1.1//EN" "http://www.w3.org/Graphics/SVG/1.1/DTD/svg11.dtd">
<svg version="1.1" id="Layer_1" xmlns="http://www.w3.org/2000/svg" xmlns:xlink="http://www.w3.org/1999/xlink" x="0px" y="0px"
	 viewBox="0 0 1080 360" enable-background="new 0 0 1080 360" xml:space="preserve">
<g>
	<g>
		
			<line fill="none" stroke="#8FC7ED" stroke-width="2" stroke-linecap="round" stroke-miterlimit="10" x1="1006" y1="160" x2="1003" y2="160"/>
		
			<line fill="none" stroke="#8FC7ED" stroke-width="2" stroke-linecap="round" stroke-miterlimit="10" stroke-dasharray="5,5" x1="998" y1="160" x2="755" y2="160"/>
		
			<line fill="none" stroke="#8FC7ED" stroke-width="2" stroke-linecap="round" stroke-miterlimit="10" x1="753" y1="160" x2="751" y2="160"/>
	</g>
</g>
<g>
	<g>
		
			<line fill="none" stroke="#8FC7ED" stroke-width="2" stroke-linecap="round" stroke-miterlimit="10" x1="60" y1="55" x2="60" y2="58"/>
		
			<line fill="none" stroke="#8FC7ED" stroke-width="2" stroke-linecap="round" stroke-miterlimit="10" stroke-dasharray="5,5" x1="60" y1="62" x2="60" y2="305"/>
		
			<line fill="none" stroke="#8FC7ED" stroke-width="2" stroke-linecap="round" stroke-miterlimit="10" x1="60" y1="308" x2="60" y2="310"/>
	</g>
</g>
<g>
	<g>
		
			<line fill="none" stroke="#8FC7ED" stroke-width="2" stroke-linecap="round" stroke-miterlimit="10" x1="90" y1="55" x2="90" y2="58"/>
		
			<line fill="none" stroke="#8FC7ED" stroke-width="2" stroke-linecap="round" stroke-miterlimit="10" stroke-dasharray="5,5" x1="90" y1="62" x2="90" y2="305"/>
		
			<line fill="none" stroke="#8FC7ED" stroke-width="2" stroke-linecap="round" stroke-miterlimit="10" x1="90" y1="308" x2="90" y2="310"/>
	</g>
</g>
<g>
	<g>
		
			<line fill="none" stroke="#8FC7ED" stroke-width="2" stroke-linecap="round" stroke-miterlimit="10" x1="120" y1="55" x2="120" y2="58"/>
		
			<line fill="none" stroke="#8FC7ED" stroke-width="2" stroke-linecap="round" stroke-miterlimit="10" stroke-dasharray="5,5" x1="120" y1="62" x2="120" y2="305"/>
		
			<line fill="none" stroke="#8FC7ED" stroke-width="2" stroke-linecap="round" stroke-miterlimit="10" x1="120" y1="308" x2="120" y2="310"/>
	</g>
</g>
<g>
	<g>
		
			<line fill="none" stroke="#8FC7ED" stroke-width="2" stroke-linecap="round" stroke-miterlimit="10" x1="150" y1="55" x2="150" y2="58"/>
		
			<line fill="none" stroke="#8FC7ED" stroke-width="2" stroke-linecap="round" stroke-miterlimit="10" stroke-dasharray="5,5" x1="150" y1="62" x2="150" y2="305"/>
		
			<line fill="none" stroke="#8FC7ED" stroke-width="2" stroke-linecap="round" stroke-miterlimit="10" x1="150" y1="308" x2="150" y2="310"/>
	</g>
</g>
<g>
	<g>
		
			<line fill="none" stroke="#8FC7ED" stroke-width="2" stroke-linecap="round" stroke-miterlimit="10" x1="180" y1="55" x2="180" y2="58"/>
		
			<line fill="none" stroke="#8FC7ED" stroke-width="2" stroke-linecap="round" stroke-miterlimit="10" stroke-dasharray="5,5" x1="180" y1="62" x2="180" y2="305"/>
		
			<line fill="none" stroke="#8FC7ED" stroke-width="2" stroke-linecap="round" stroke-miterlimit="10" x1="180" y1="308" x2="180" y2="310"/>
	</g>
</g>
<g>
	<g>
		
			<line fill="none" stroke="#8FC7ED" stroke-width="2" stroke-linecap="round" stroke-miterlimit="10" x1="210" y1="55" x2="210" y2="58"/>
		
			<line fill="none" stroke="#8FC7ED" stroke-width="2" stroke-linecap="round" stroke-miterlimit="10" stroke-dasharray="5,5" x1="210" y1="62" x2="210" y2="305"/>
		
			<line fill="none" stroke="#8FC7ED" stroke-width="2" stroke-linecap="round" stroke-miterlimit="10" x1="210" y1="308" x2="210" y2="310"/>
	</g>
</g>
<g>
	<g>
		
			<line fill="none" stroke="#8FC7ED" stroke-width="2" stroke-linecap="round" stroke-miterlimit="10" x1="240" y1="55" x2="240" y2="58"/>
		
			<line fill="none" stroke="#8FC7ED" stroke-width="2" stroke-linecap="round" stroke-miterlimit="10" stroke-dasharray="5,5" x1="240" y1="62" x2="240" y2="305"/>
		
			<line fill="none" stroke="#8FC7ED" stroke-width="2" stroke-linecap="round" stroke-miterlimit="10" x1="240" y1="308" x2="240" y2="310"/>
	</g>
</g>
<g>
	<g>
		
			<line fill="none" stroke="#8FC7ED" stroke-width="2" stroke-linecap="round" stroke-miterlimit="10" x1="270" y1="55" x2="270" y2="58"/>
		
			<line fill="none" stroke="#8FC7ED" stroke-width="2" stroke-linecap="round" stroke-miterlimit="10" stroke-dasharray="5,5" x1="270" y1="62" x2="270" y2="305"/>
		
			<line fill="none" stroke="#8FC7ED" stroke-width="2" stroke-linecap="round" stroke-miterlimit="10" x1="270" y1="308" x2="270" y2="310"/>
	</g>
</g>
<g>
	<path fill="none" d="M299.8,310.3"/>
</g>
<g>
	<path fill="none" d="M299.8,25.3"/>
</g>
<g>
	<path fill="none" d="M30.5,39.8"/>
</g>
<g>
	<path fill="none" d="M315.5,39.8"/>
</g>
<g>
	<g>
		
			<line fill="none" stroke="#8FC7ED" stroke-width="2" stroke-linecap="round" stroke-miterlimit="10" x1="286" y1="70" x2="283" y2="70"/>
		
			<line fill="none" stroke="#8FC7ED" stroke-width="2" stroke-linecap="round" stroke-miterlimit="10" stroke-dasharray="5,5" x1="278" y1="70" x2="35" y2="70"/>
		
			<line fill="none" stroke="#8FC7ED" stroke-width="2" stroke-linecap="round" stroke-miterlimit="10" x1="33" y1="70" x2="31" y2="70"/>
	</g>
</g>
<g>
	<g>
		
			<line fill="none" stroke="#8FC7ED" stroke-width="2" stroke-linecap="round" stroke-miterlimit="10" x1="286" y1="100" x2="283" y2="100"/>
		
			<line fill="none" stroke="#8FC7ED" stroke-width="2" stroke-linecap="round" stroke-miterlimit="10" stroke-dasharray="5,5" x1="278" y1="100" x2="35" y2="100"/>
		
			<line fill="none" stroke="#8FC7ED" stroke-width="2" stroke-linecap="round" stroke-miterlimit="10" x1="33" y1="100" x2="31" y2="100"/>
	</g>
</g>
<g>
	<g>
		
			<line fill="none" stroke="#8FC7ED" stroke-width="2" stroke-linecap="round" stroke-miterlimit="10" x1="286" y1="130" x2="283" y2="130"/>
		
			<line fill="none" stroke="#8FC7ED" stroke-width="2" stroke-linecap="round" stroke-miterlimit="10" stroke-dasharray="5,5" x1="278" y1="130" x2="35" y2="130"/>
		
			<line fill="none" stroke="#8FC7ED" stroke-width="2" stroke-linecap="round" stroke-miterlimit="10" x1="33" y1="130" x2="31" y2="130"/>
	</g>
</g>
<g>
	<g>
		
			<line fill="none" stroke="#8FC7ED" stroke-width="2" stroke-linecap="round" stroke-miterlimit="10" x1="286" y1="160" x2="283" y2="160"/>
		
			<line fill="none" stroke="#8FC7ED" stroke-width="2" stroke-linecap="round" stroke-miterlimit="10" stroke-dasharray="5,5" x1="278" y1="160" x2="35" y2="160"/>
		
			<line fill="none" stroke="#8FC7ED" stroke-width="2" stroke-linecap="round" stroke-miterlimit="10" x1="33" y1="160" x2="31" y2="160"/>
	</g>
</g>
<g>
	<g>
		
			<line fill="none" stroke="#8FC7ED" stroke-width="2" stroke-linecap="round" stroke-miterlimit="10" x1="286" y1="190" x2="283" y2="190"/>
		
			<line fill="none" stroke="#8FC7ED" stroke-width="2" stroke-linecap="round" stroke-miterlimit="10" stroke-dasharray="5,5" x1="278" y1="190" x2="35" y2="190"/>
		
			<line fill="none" stroke="#8FC7ED" stroke-width="2" stroke-linecap="round" stroke-miterlimit="10" x1="33" y1="190" x2="31" y2="190"/>
	</g>
</g>
<g>
	<g>
		
			<line fill="none" stroke="#8FC7ED" stroke-width="2" stroke-linecap="round" stroke-miterlimit="10" x1="286" y1="220" x2="283" y2="220"/>
		
			<line fill="none" stroke="#8FC7ED" stroke-width="2" stroke-linecap="round" stroke-miterlimit="10" stroke-dasharray="5,5" x1="278" y1="220" x2="35" y2="220"/>
		
			<line fill="none" stroke="#8FC7ED" stroke-width="2" stroke-linecap="round" stroke-miterlimit="10" x1="33" y1="220" x2="31" y2="220"/>
	</g>
</g>
<g>
	<g>
		
			<line fill="none" stroke="#8FC7ED" stroke-width="2" stroke-linecap="round" stroke-miterlimit="10" x1="286" y1="250" x2="283" y2="250"/>
		
			<line fill="none" stroke="#8FC7ED" stroke-width="2" stroke-linecap="round" stroke-miterlimit="10" stroke-dasharray="5,5" x1="278" y1="250" x2="35" y2="250"/>
		
			<line fill="none" stroke="#8FC7ED" stroke-width="2" stroke-linecap="round" stroke-miterlimit="10" x1="33" y1="250" x2="31" y2="250"/>
	</g>
</g>
<g>
	<g>
		
			<line fill="none" stroke="#8FC7ED" stroke-width="2" stroke-linecap="round" stroke-miterlimit="10" x1="285" y1="280" x2="283" y2="280"/>
		
			<line fill="none" stroke="#8FC7ED" stroke-width="2" stroke-linecap="round" stroke-miterlimit="10" stroke-dasharray="5,5" x1="278" y1="280" x2="35" y2="280"/>
		
			<line fill="none" stroke="#8FC7ED" stroke-width="2" stroke-linecap="round" stroke-miterlimit="10" x1="33" y1="280" x2="30" y2="280"/>
	</g>
</g>
<g>
	<line fill="#294270" x1="30" y1="310" x2="30.5" y2="24"/>
	<g>
		
			<line fill="none" stroke="#294270" stroke-width="4" stroke-linecap="round" stroke-miterlimit="10" x1="30" y1="310" x2="30.5" y2="38.1"/>
		<g>
			<polygon fill="#294270" points="30.5,24 38.6,43.9 30.5,39.2 22.3,43.9 			"/>
		</g>
	</g>
</g>
<g>
	<line fill="#294270" x1="30" y1="310" x2="300" y2="310"/>
	<g>
		
			<line fill="none" stroke="#294270" stroke-width="4" stroke-linecap="round" stroke-miterlimit="10" x1="30" y1="310" x2="286" y2="310"/>
		<g>
			<polygon fill="#294270" points="299.8,310 279.9,318.1 284.6,310 279.9,301.9 			"/>
		</g>
	</g>
</g>
<g>
	<path fill="none" d="M180,310"/>
</g>
<g>
	<path fill="none" d="M210,310"/>
</g>
<g>
	<path fill="none" d="M240,310"/>
</g>
<g>
	<path fill="none" d="M269.7,308.8"/>
</g>
<g>
	<path fill="none" d="M298,300"/>
</g>
<line fill="none" stroke="#737370" stroke-width="4" stroke-linecap="round" stroke-miterlimit="10" x1="60" y1="250" x2="60" y2="160"/>
<line fill="none" stroke="#737370" stroke-width="4" stroke-linecap="round" stroke-miterlimit="10" x1="60" y1="160" x2="150" y2="100"/>
<line fill="none" stroke="#737370" stroke-width="4" stroke-linecap="round" stroke-miterlimit="10" x1="150" y1="100" x2="240" y2="160"/>
<line fill="none" stroke="#737370" stroke-width="4" stroke-linecap="round" stroke-miterlimit="10" x1="240" y1="160" x2="240" y2="250"/>
<line fill="none" stroke="#737370" stroke-width="4" stroke-linecap="round" stroke-miterlimit="10" x1="780" y1="160" x2="960" y2="160"/>
<line fill="none" stroke="#737370" stroke-width="4" stroke-linecap="round" stroke-miterlimit="10" x1="60" y1="250" x2="240" y2="250"/>
<g>
	<g>
		
			<line fill="none" stroke="#8FC7ED" stroke-width="2" stroke-linecap="round" stroke-miterlimit="10" x1="421" y1="55" x2="421" y2="58"/>
		
			<line fill="none" stroke="#8FC7ED" stroke-width="2" stroke-linecap="round" stroke-miterlimit="10" stroke-dasharray="5,5" x1="421" y1="62" x2="421" y2="305"/>
		
			<line fill="none" stroke="#8FC7ED" stroke-width="2" stroke-linecap="round" stroke-miterlimit="10" x1="421" y1="308" x2="421" y2="310"/>
	</g>
</g>
<g>
	<g>
		
			<line fill="none" stroke="#8FC7ED" stroke-width="2" stroke-linecap="round" stroke-miterlimit="10" x1="451" y1="55" x2="451" y2="58"/>
		
			<line fill="none" stroke="#8FC7ED" stroke-width="2" stroke-linecap="round" stroke-miterlimit="10" stroke-dasharray="5,5" x1="451" y1="62" x2="451" y2="305"/>
		
			<line fill="none" stroke="#8FC7ED" stroke-width="2" stroke-linecap="round" stroke-miterlimit="10" x1="451" y1="308" x2="451" y2="310"/>
	</g>
</g>
<g>
	<g>
		
			<line fill="none" stroke="#8FC7ED" stroke-width="2" stroke-linecap="round" stroke-miterlimit="10" x1="481" y1="55" x2="481" y2="58"/>
		
			<line fill="none" stroke="#8FC7ED" stroke-width="2" stroke-linecap="round" stroke-miterlimit="10" stroke-dasharray="5,5" x1="481" y1="62" x2="481" y2="305"/>
		
			<line fill="none" stroke="#8FC7ED" stroke-width="2" stroke-linecap="round" stroke-miterlimit="10" x1="481" y1="308" x2="481" y2="310"/>
	</g>
</g>
<g>
	<g>
		
			<line fill="none" stroke="#8FC7ED" stroke-width="2" stroke-linecap="round" stroke-miterlimit="10" x1="511" y1="55" x2="511" y2="58"/>
		
			<line fill="none" stroke="#8FC7ED" stroke-width="2" stroke-linecap="round" stroke-miterlimit="10" stroke-dasharray="5,5" x1="511" y1="62" x2="511" y2="305"/>
		
			<line fill="none" stroke="#8FC7ED" stroke-width="2" stroke-linecap="round" stroke-miterlimit="10" x1="511" y1="308" x2="511" y2="310"/>
	</g>
</g>
<g>
	<g>
		
			<line fill="none" stroke="#8FC7ED" stroke-width="2" stroke-linecap="round" stroke-miterlimit="10" x1="541" y1="55" x2="541" y2="58"/>
		
			<line fill="none" stroke="#8FC7ED" stroke-width="2" stroke-linecap="round" stroke-miterlimit="10" stroke-dasharray="5,5" x1="541" y1="62" x2="541" y2="305"/>
		
			<line fill="none" stroke="#8FC7ED" stroke-width="2" stroke-linecap="round" stroke-miterlimit="10" x1="541" y1="308" x2="541" y2="310"/>
	</g>
</g>
<g>
	<g>
		
			<line fill="none" stroke="#8FC7ED" stroke-width="2" stroke-linecap="round" stroke-miterlimit="10" x1="571" y1="55" x2="571" y2="58"/>
		
			<line fill="none" stroke="#8FC7ED" stroke-width="2" stroke-linecap="round" stroke-miterlimit="10" stroke-dasharray="5,5" x1="571" y1="62" x2="571" y2="305"/>
		
			<line fill="none" stroke="#8FC7ED" stroke-width="2" stroke-linecap="round" stroke-miterlimit="10" x1="571" y1="308" x2="571" y2="310"/>
	</g>
</g>
<g>
	<g>
		
			<line fill="none" stroke="#8FC7ED" stroke-width="2" stroke-linecap="round" stroke-miterlimit="10" x1="601" y1="55" x2="601" y2="58"/>
		
			<line fill="none" stroke="#8FC7ED" stroke-width="2" stroke-linecap="round" stroke-miterlimit="10" stroke-dasharray="5,5" x1="601" y1="62" x2="601" y2="305"/>
		
			<line fill="none" stroke="#8FC7ED" stroke-width="2" stroke-linecap="round" stroke-miterlimit="10" x1="601" y1="308" x2="601" y2="310"/>
	</g>
</g>
<g>
	<g>
		
			<line fill="none" stroke="#8FC7ED" stroke-width="2" stroke-linecap="round" stroke-miterlimit="10" x1="631" y1="55" x2="631" y2="58"/>
		
			<line fill="none" stroke="#8FC7ED" stroke-width="2" stroke-linecap="round" stroke-miterlimit="10" stroke-dasharray="5,5" x1="631" y1="62" x2="631" y2="305"/>
		
			<line fill="none" stroke="#8FC7ED" stroke-width="2" stroke-linecap="round" stroke-miterlimit="10" x1="631" y1="308" x2="631" y2="310"/>
	</g>
</g>
<g>
	<path fill="none" d="M570.8,310.3"/>
</g>
<g>
	<path fill="none" d="M570.8,25.3"/>
</g>
<g>
	<path fill="none" d="M391.5,39.8"/>
</g>
<g>
	<path fill="none" d="M586.5,39.8"/>
</g>
<g>
	<g>
		
			<line fill="none" stroke="#8FC7ED" stroke-width="2" stroke-linecap="round" stroke-miterlimit="10" x1="647" y1="70" x2="644" y2="70"/>
		
			<line fill="none" stroke="#8FC7ED" stroke-width="2" stroke-linecap="round" stroke-miterlimit="10" stroke-dasharray="5,5" x1="639" y1="70" x2="396" y2="70"/>
		
			<line fill="none" stroke="#8FC7ED" stroke-width="2" stroke-linecap="round" stroke-miterlimit="10" x1="394" y1="70" x2="392" y2="70"/>
	</g>
</g>
<g>
	<g>
		
			<line fill="none" stroke="#8FC7ED" stroke-width="2" stroke-linecap="round" stroke-miterlimit="10" x1="647" y1="100" x2="644" y2="100"/>
		
			<line fill="none" stroke="#8FC7ED" stroke-width="2" stroke-linecap="round" stroke-miterlimit="10" stroke-dasharray="5,5" x1="639" y1="100" x2="396" y2="100"/>
		
			<line fill="none" stroke="#8FC7ED" stroke-width="2" stroke-linecap="round" stroke-miterlimit="10" x1="394" y1="100" x2="392" y2="100"/>
	</g>
</g>
<g>
	<g>
		
			<line fill="none" stroke="#8FC7ED" stroke-width="2" stroke-linecap="round" stroke-miterlimit="10" x1="647" y1="130" x2="644" y2="130"/>
		
			<line fill="none" stroke="#8FC7ED" stroke-width="2" stroke-linecap="round" stroke-miterlimit="10" stroke-dasharray="5,5" x1="639" y1="130" x2="396" y2="130"/>
		
			<line fill="none" stroke="#8FC7ED" stroke-width="2" stroke-linecap="round" stroke-miterlimit="10" x1="394" y1="130" x2="392" y2="130"/>
	</g>
</g>
<g>
	<g>
		
			<line fill="none" stroke="#8FC7ED" stroke-width="2" stroke-linecap="round" stroke-miterlimit="10" x1="647" y1="160" x2="644" y2="160"/>
		
			<line fill="none" stroke="#8FC7ED" stroke-width="2" stroke-linecap="round" stroke-miterlimit="10" stroke-dasharray="5,5" x1="639" y1="160" x2="396" y2="160"/>
		
			<line fill="none" stroke="#8FC7ED" stroke-width="2" stroke-linecap="round" stroke-miterlimit="10" x1="394" y1="160" x2="392" y2="160"/>
	</g>
</g>
<g>
	<g>
		
			<line fill="none" stroke="#8FC7ED" stroke-width="2" stroke-linecap="round" stroke-miterlimit="10" x1="647" y1="190" x2="644" y2="190"/>
		
			<line fill="none" stroke="#8FC7ED" stroke-width="2" stroke-linecap="round" stroke-miterlimit="10" stroke-dasharray="5,5" x1="639" y1="190" x2="396" y2="190"/>
		
			<line fill="none" stroke="#8FC7ED" stroke-width="2" stroke-linecap="round" stroke-miterlimit="10" x1="394" y1="190" x2="392" y2="190"/>
	</g>
</g>
<g>
	<g>
		
			<line fill="none" stroke="#8FC7ED" stroke-width="2" stroke-linecap="round" stroke-miterlimit="10" x1="647" y1="220" x2="644" y2="220"/>
		
			<line fill="none" stroke="#8FC7ED" stroke-width="2" stroke-linecap="round" stroke-miterlimit="10" stroke-dasharray="5,5" x1="639" y1="220" x2="396" y2="220"/>
		
			<line fill="none" stroke="#8FC7ED" stroke-width="2" stroke-linecap="round" stroke-miterlimit="10" x1="394" y1="220" x2="392" y2="220"/>
	</g>
</g>
<g>
	<g>
		
			<line fill="none" stroke="#8FC7ED" stroke-width="2" stroke-linecap="round" stroke-miterlimit="10" x1="647" y1="250" x2="644" y2="250"/>
		
			<line fill="none" stroke="#8FC7ED" stroke-width="2" stroke-linecap="round" stroke-miterlimit="10" stroke-dasharray="5,5" x1="639" y1="250" x2="396" y2="250"/>
		
			<line fill="none" stroke="#8FC7ED" stroke-width="2" stroke-linecap="round" stroke-miterlimit="10" x1="394" y1="250" x2="392" y2="250"/>
	</g>
</g>
<g>
	<g>
		
			<line fill="none" stroke="#8FC7ED" stroke-width="2" stroke-linecap="round" stroke-miterlimit="10" x1="646" y1="280" x2="644" y2="280"/>
		
			<line fill="none" stroke="#8FC7ED" stroke-width="2" stroke-linecap="round" stroke-miterlimit="10" stroke-dasharray="5,5" x1="639" y1="280" x2="396" y2="280"/>
		
			<line fill="none" stroke="#8FC7ED" stroke-width="2" stroke-linecap="round" stroke-miterlimit="10" x1="394" y1="280" x2="391" y2="280"/>
	</g>
</g>
<g>
	<line fill="#294270" x1="391" y1="310" x2="391.5" y2="24"/>
	<g>
		
			<line fill="none" stroke="#294270" stroke-width="4" stroke-linecap="round" stroke-miterlimit="10" x1="391" y1="310" x2="391.5" y2="38.1"/>
		<g>
			<polygon fill="#294270" points="391.5,24 399.6,43.9 391.5,39.2 383.3,43.9 			"/>
		</g>
	</g>
</g>
<g>
	<line fill="#294270" x1="391" y1="310" x2="661" y2="310"/>
	<g>
		
			<line fill="none" stroke="#294270" stroke-width="4" stroke-linecap="round" stroke-miterlimit="10" x1="391" y1="310" x2="647" y2="310"/>
		<g>
			<polygon fill="#294270" points="660.8,310 640.9,318.1 645.6,310 640.9,301.9 			"/>
		</g>
	</g>
</g>
<g>
	<path fill="none" d="M541,310"/>
</g>
<g>
	<path fill="none" d="M571,310"/>
</g>
<g>
	<path fill="none" d="M601,310"/>
</g>
<g>
	<path fill="none" d="M630.7,308.8"/>
</g>
<g>
	<path fill="none" d="M569,300"/>
</g>
<line fill="none" stroke="#737370" stroke-width="4" stroke-linecap="round" stroke-miterlimit="10" x1="421" y1="250" x2="421" y2="160"/>
<line fill="none" stroke="#737370" stroke-width="4" stroke-linecap="round" stroke-miterlimit="10" x1="421" y1="160" x2="511" y2="100"/>
<line fill="none" stroke="#737370" stroke-width="4" stroke-linecap="round" stroke-miterlimit="10" x1="511" y1="100" x2="601" y2="160"/>
<line fill="none" stroke="#737370" stroke-width="4" stroke-linecap="round" stroke-miterlimit="10" x1="601" y1="160" x2="601" y2="250"/>
<line fill="none" stroke="#737370" stroke-width="4" stroke-linecap="round" stroke-miterlimit="10" x1="601" y1="250" x2="421" y2="160"/>
<line fill="none" stroke="#737370" stroke-width="4" stroke-linecap="round" stroke-miterlimit="10" x1="601" y1="160" x2="421" y2="250"/>
<line fill="none" stroke="#737370" stroke-width="4" stroke-linecap="round" stroke-miterlimit="10" x1="421" y1="250" x2="601" y2="250"/>
<g>
	<g>
		
			<line fill="none" stroke="#8FC7ED" stroke-width="2" stroke-linecap="round" stroke-miterlimit="10" x1="780" y1="55" x2="780" y2="58"/>
		
			<line fill="none" stroke="#8FC7ED" stroke-width="2" stroke-linecap="round" stroke-miterlimit="10" stroke-dasharray="5,5" x1="780" y1="62" x2="780" y2="305"/>
		
			<line fill="none" stroke="#8FC7ED" stroke-width="2" stroke-linecap="round" stroke-miterlimit="10" x1="780" y1="308" x2="780" y2="310"/>
	</g>
</g>
<g>
	<g>
		
			<line fill="none" stroke="#8FC7ED" stroke-width="2" stroke-linecap="round" stroke-miterlimit="10" x1="810" y1="55" x2="810" y2="58"/>
		
			<line fill="none" stroke="#8FC7ED" stroke-width="2" stroke-linecap="round" stroke-miterlimit="10" stroke-dasharray="5,5" x1="810" y1="62" x2="810" y2="305"/>
		
			<line fill="none" stroke="#8FC7ED" stroke-width="2" stroke-linecap="round" stroke-miterlimit="10" x1="810" y1="308" x2="810" y2="310"/>
	</g>
</g>
<g>
	<g>
		
			<line fill="none" stroke="#8FC7ED" stroke-width="2" stroke-linecap="round" stroke-miterlimit="10" x1="840" y1="55" x2="840" y2="58"/>
		
			<line fill="none" stroke="#8FC7ED" stroke-width="2" stroke-linecap="round" stroke-miterlimit="10" stroke-dasharray="5,5" x1="840" y1="62" x2="840" y2="305"/>
		
			<line fill="none" stroke="#8FC7ED" stroke-width="2" stroke-linecap="round" stroke-miterlimit="10" x1="840" y1="308" x2="840" y2="310"/>
	</g>
</g>
<g>
	<g>
		
			<line fill="none" stroke="#8FC7ED" stroke-width="2" stroke-linecap="round" stroke-miterlimit="10" x1="870" y1="55" x2="870" y2="58"/>
		
			<line fill="none" stroke="#8FC7ED" stroke-width="2" stroke-linecap="round" stroke-miterlimit="10" stroke-dasharray="5,5" x1="870" y1="62" x2="870" y2="305"/>
		
			<line fill="none" stroke="#8FC7ED" stroke-width="2" stroke-linecap="round" stroke-miterlimit="10" x1="870" y1="308" x2="870" y2="310"/>
	</g>
</g>
<g>
	<g>
		
			<line fill="none" stroke="#8FC7ED" stroke-width="2" stroke-linecap="round" stroke-miterlimit="10" x1="900" y1="55" x2="900" y2="58"/>
		
			<line fill="none" stroke="#8FC7ED" stroke-width="2" stroke-linecap="round" stroke-miterlimit="10" stroke-dasharray="5,5" x1="900" y1="62" x2="900" y2="305"/>
		
			<line fill="none" stroke="#8FC7ED" stroke-width="2" stroke-linecap="round" stroke-miterlimit="10" x1="900" y1="308" x2="900" y2="310"/>
	</g>
</g>
<g>
	<g>
		
			<line fill="none" stroke="#8FC7ED" stroke-width="2" stroke-linecap="round" stroke-miterlimit="10" x1="930" y1="55" x2="930" y2="58"/>
		
			<line fill="none" stroke="#8FC7ED" stroke-width="2" stroke-linecap="round" stroke-miterlimit="10" stroke-dasharray="5,5" x1="930" y1="62" x2="930" y2="305"/>
		
			<line fill="none" stroke="#8FC7ED" stroke-width="2" stroke-linecap="round" stroke-miterlimit="10" x1="930" y1="308" x2="930" y2="310"/>
	</g>
</g>
<g>
	<g>
		
			<line fill="none" stroke="#8FC7ED" stroke-width="2" stroke-linecap="round" stroke-miterlimit="10" x1="960" y1="55" x2="960" y2="58"/>
		
			<line fill="none" stroke="#8FC7ED" stroke-width="2" stroke-linecap="round" stroke-miterlimit="10" stroke-dasharray="5,5" x1="960" y1="62" x2="960" y2="305"/>
		
			<line fill="none" stroke="#8FC7ED" stroke-width="2" stroke-linecap="round" stroke-miterlimit="10" x1="960" y1="308" x2="960" y2="310"/>
	</g>
</g>
<g>
	<g>
		
			<line fill="none" stroke="#8FC7ED" stroke-width="2" stroke-linecap="round" stroke-miterlimit="10" x1="990" y1="55" x2="990" y2="58"/>
		
			<line fill="none" stroke="#8FC7ED" stroke-width="2" stroke-linecap="round" stroke-miterlimit="10" stroke-dasharray="5,5" x1="990" y1="62" x2="990" y2="305"/>
		
			<line fill="none" stroke="#8FC7ED" stroke-width="2" stroke-linecap="round" stroke-miterlimit="10" x1="990" y1="308" x2="990" y2="310"/>
	</g>
</g>
<g>
	<path fill="none" d="M1019.8,310.3"/>
</g>
<g>
	<path fill="none" d="M1019.8,25.3"/>
</g>
<g>
	<path fill="none" d="M750.5,39.8"/>
</g>
<g>
	<path fill="none" d="M1065.5,39.8"/>
</g>
<g>
	<g>
		
			<line fill="none" stroke="#8FC7ED" stroke-width="2" stroke-linecap="round" stroke-miterlimit="10" x1="1006" y1="70" x2="1003" y2="70"/>
		
			<line fill="none" stroke="#8FC7ED" stroke-width="2" stroke-linecap="round" stroke-miterlimit="10" stroke-dasharray="5,5" x1="998" y1="70" x2="755" y2="70"/>
		
			<line fill="none" stroke="#8FC7ED" stroke-width="2" stroke-linecap="round" stroke-miterlimit="10" x1="753" y1="70" x2="751" y2="70"/>
	</g>
</g>
<g>
	<g>
		
			<line fill="none" stroke="#8FC7ED" stroke-width="2" stroke-linecap="round" stroke-miterlimit="10" x1="1006" y1="100" x2="1003" y2="100"/>
		
			<line fill="none" stroke="#8FC7ED" stroke-width="2" stroke-linecap="round" stroke-miterlimit="10" stroke-dasharray="5,5" x1="998" y1="100" x2="755" y2="100"/>
		
			<line fill="none" stroke="#8FC7ED" stroke-width="2" stroke-linecap="round" stroke-miterlimit="10" x1="753" y1="100" x2="751" y2="100"/>
	</g>
</g>
<g>
	<g>
		
			<line fill="none" stroke="#8FC7ED" stroke-width="2" stroke-linecap="round" stroke-miterlimit="10" x1="1006" y1="130" x2="1003" y2="130"/>
		
			<line fill="none" stroke="#8FC7ED" stroke-width="2" stroke-linecap="round" stroke-miterlimit="10" stroke-dasharray="5,5" x1="998" y1="130" x2="755" y2="130"/>
		
			<line fill="none" stroke="#8FC7ED" stroke-width="2" stroke-linecap="round" stroke-miterlimit="10" x1="753" y1="130" x2="751" y2="130"/>
	</g>
</g>
<g>
	<g>
		
			<line fill="none" stroke="#8FC7ED" stroke-width="2" stroke-linecap="round" stroke-miterlimit="10" x1="1006" y1="190" x2="1003" y2="190"/>
		
			<line fill="none" stroke="#8FC7ED" stroke-width="2" stroke-linecap="round" stroke-miterlimit="10" stroke-dasharray="5,5" x1="998" y1="190" x2="755" y2="190"/>
		
			<line fill="none" stroke="#8FC7ED" stroke-width="2" stroke-linecap="round" stroke-miterlimit="10" x1="753" y1="190" x2="751" y2="190"/>
	</g>
</g>
<g>
	<g>
		
			<line fill="none" stroke="#8FC7ED" stroke-width="2" stroke-linecap="round" stroke-miterlimit="10" x1="1006" y1="220" x2="1003" y2="220"/>
		
			<line fill="none" stroke="#8FC7ED" stroke-width="2" stroke-linecap="round" stroke-miterlimit="10" stroke-dasharray="5,5" x1="998" y1="220" x2="755" y2="220"/>
		
			<line fill="none" stroke="#8FC7ED" stroke-width="2" stroke-linecap="round" stroke-miterlimit="10" x1="753" y1="220" x2="751" y2="220"/>
	</g>
</g>
<g>
	<g>
		
			<line fill="none" stroke="#8FC7ED" stroke-width="2" stroke-linecap="round" stroke-miterlimit="10" x1="1006" y1="250" x2="1003" y2="250"/>
		
			<line fill="none" stroke="#8FC7ED" stroke-width="2" stroke-linecap="round" stroke-miterlimit="10" stroke-dasharray="5,5" x1="998" y1="250" x2="755" y2="250"/>
		
			<line fill="none" stroke="#8FC7ED" stroke-width="2" stroke-linecap="round" stroke-miterlimit="10" x1="753" y1="250" x2="751" y2="250"/>
	</g>
</g>
<g>
	<g>
		
			<line fill="none" stroke="#8FC7ED" stroke-width="2" stroke-linecap="round" stroke-miterlimit="10" x1="1005" y1="280" x2="1003" y2="280"/>
		
			<line fill="none" stroke="#8FC7ED" stroke-width="2" stroke-linecap="round" stroke-miterlimit="10" stroke-dasharray="5,5" x1="998" y1="280" x2="755" y2="280"/>
		
			<line fill="none" stroke="#8FC7ED" stroke-width="2" stroke-linecap="round" stroke-miterlimit="10" x1="753" y1="280" x2="750" y2="280"/>
	</g>
</g>
<g>
	<line fill="#294270" x1="750" y1="310" x2="750.5" y2="24"/>
	<g>
		
			<line fill="none" stroke="#294270" stroke-width="4" stroke-linecap="round" stroke-miterlimit="10" x1="750" y1="310" x2="750.5" y2="38.1"/>
		<g>
			<polygon fill="#294270" points="750.5,24 758.6,43.9 750.5,39.2 742.3,43.9 			"/>
		</g>
	</g>
</g>
<g>
	<line fill="#294270" x1="750" y1="310" x2="1020" y2="310"/>
	<g>
		
			<line fill="none" stroke="#294270" stroke-width="4" stroke-linecap="round" stroke-miterlimit="10" x1="750" y1="310" x2="1006" y2="310"/>
		<g>
			<polygon fill="#294270" points="1019.8,310 999.9,318.1 1004.6,310 999.9,301.9 			"/>
		</g>
	</g>
</g>
<g>
	<path fill="none" d="M900,310"/>
</g>
<g>
	<path fill="none" d="M930,310"/>
</g>
<g>
	<path fill="none" d="M960,310"/>
</g>
<g>
	<path fill="none" d="M989.7,308.8"/>
</g>
<g>
	<path fill="none" d="M1018,300"/>
</g>
<line fill="none" stroke="#737370" stroke-width="4" stroke-linecap="round" stroke-miterlimit="10" x1="780" y1="250" x2="780" y2="160"/>
<line fill="none" stroke="#737370" stroke-width="4" stroke-linecap="round" stroke-miterlimit="10" x1="780" y1="160" x2="870" y2="100"/>
<line fill="none" stroke="#737370" stroke-width="4" stroke-linecap="round" stroke-miterlimit="10" x1="870" y1="100" x2="960" y2="160"/>
<line fill="none" stroke="#737370" stroke-width="4" stroke-linecap="round" stroke-miterlimit="10" x1="960" y1="160" x2="960" y2="250"/>
<line fill="none" stroke="#737370" stroke-width="4" stroke-linecap="round" stroke-miterlimit="10" x1="780" y1="250" x2="960" y2="250"/>
<text transform="matrix(1 0 0 1 120 345)" fill="#294270" font-family="'Roboto-Bold'" font-size="36">Ex.1</text>
<g>
	<path fill="#294270" d="M498.1,333.8h-10.6v7.3h12.4v4h-17.5v-25.6h17.5v4h-12.4v6.4h10.6V333.8z"/>
	<path fill="#294270" d="M509.8,332h0.1l2.9-6h5.8l-5.7,9.4l5.9,9.6H513l-3.1-6.3l-3.1,6.3H501l5.9-9.6l-5.7-9.4h5.8L509.8,332z"/>
	<path fill="#294270" d="M526.7,345h-5.1v-4.5h5.1V345z"/>
	<path fill="#294270" d="M548.7,345h-17.5v-3.4l8.3-8.9c1.2-1.4,2-2.5,2.5-3.5s0.8-1.8,0.8-2.6c0-1.1-0.3-2-0.9-2.6s-1.4-1-2.5-1
		c-1.2,0-2.1,0.4-2.7,1.2s-0.9,1.9-0.9,3.2h-5l0-0.1c-0.1-2.3,0.7-4.3,2.3-5.9s3.7-2.4,6.4-2.4c2.6,0,4.7,0.7,6.2,2.1
		s2.3,3.2,2.3,5.5c0,1.5-0.4,3-1.3,4.3s-2.3,3-4.2,5.1l-4.6,5l0,0.1h10.8V345z"/>
</g>
<text transform="matrix(1 0 0 1 840 345)" fill="#294270" font-family="'Roboto-Bold'" font-size="36">Ex.3</text>
<line fill="none" stroke="#737370" stroke-width="4" stroke-linecap="round" stroke-miterlimit="10" x1="960" y1="250" x2="780" y2="160"/>
<line fill="none" stroke="#737370" stroke-width="4" stroke-linecap="round" stroke-miterlimit="10" x1="960" y1="160" x2="780" y2="250"/>
</svg>
