<?xml version="1.0" encoding="utf-8"?>
<!-- Generator: Adobe Illustrator 18.0.0, SVG Export Plug-In . SVG Version: 6.00 Build 0)  -->
<!DOCTYPE svg PUBLIC "-//W3C//DTD SVG 1.1//EN" "http://www.w3.org/Graphics/SVG/1.1/DTD/svg11.dtd">
<svg version="1.1" id="Layer_1" xmlns="http://www.w3.org/2000/svg" xmlns:xlink="http://www.w3.org/1999/xlink" x="0px" y="0px"
	 viewBox="0 0 1200 800" enable-background="new 0 0 1200 800" xml:space="preserve">
<g>
	<g>
		
			<line fill="none" stroke="#8FC7ED" stroke-width="2" stroke-linecap="round" stroke-miterlimit="10" x1="1117.8" y1="377.8" x2="1114.4" y2="377.8"/>
		
			<line fill="none" stroke="#8FC7ED" stroke-width="2" stroke-linecap="round" stroke-miterlimit="10" stroke-dasharray="5,5" x1="1108.9" y1="377.8" x2="838.9" y2="377.8"/>
		
			<line fill="none" stroke="#8FC7ED" stroke-width="2" stroke-linecap="round" stroke-miterlimit="10" x1="836.7" y1="377.8" x2="834.4" y2="377.8"/>
	</g>
</g>
<g>
	<g>
		
			<line fill="none" stroke="#8FC7ED" stroke-width="2" stroke-linecap="round" stroke-miterlimit="10" x1="66.7" y1="261.1" x2="66.7" y2="264.4"/>
		
			<line fill="none" stroke="#8FC7ED" stroke-width="2" stroke-linecap="round" stroke-miterlimit="10" stroke-dasharray="5,5" x1="66.7" y1="268.9" x2="66.7" y2="538.9"/>
		
			<line fill="none" stroke="#8FC7ED" stroke-width="2" stroke-linecap="round" stroke-miterlimit="10" x1="66.7" y1="542.2" x2="66.7" y2="544.4"/>
	</g>
</g>
<g>
	<g>
		
			<line fill="none" stroke="#8FC7ED" stroke-width="2" stroke-linecap="round" stroke-miterlimit="10" x1="100" y1="261.1" x2="100" y2="264.4"/>
		
			<line fill="none" stroke="#8FC7ED" stroke-width="2" stroke-linecap="round" stroke-miterlimit="10" stroke-dasharray="5,5" x1="100" y1="268.9" x2="100" y2="538.9"/>
		
			<line fill="none" stroke="#8FC7ED" stroke-width="2" stroke-linecap="round" stroke-miterlimit="10" x1="100" y1="542.2" x2="100" y2="544.4"/>
	</g>
</g>
<g>
	<g>
		
			<line fill="none" stroke="#8FC7ED" stroke-width="2" stroke-linecap="round" stroke-miterlimit="10" x1="133.3" y1="261.1" x2="133.3" y2="264.4"/>
		
			<line fill="none" stroke="#8FC7ED" stroke-width="2" stroke-linecap="round" stroke-miterlimit="10" stroke-dasharray="5,5" x1="133.3" y1="268.9" x2="133.3" y2="538.9"/>
		
			<line fill="none" stroke="#8FC7ED" stroke-width="2" stroke-linecap="round" stroke-miterlimit="10" x1="133.3" y1="542.2" x2="133.3" y2="544.4"/>
	</g>
</g>
<g>
	<g>
		
			<line fill="none" stroke="#8FC7ED" stroke-width="2" stroke-linecap="round" stroke-miterlimit="10" x1="166.7" y1="261.1" x2="166.7" y2="264.4"/>
		
			<line fill="none" stroke="#8FC7ED" stroke-width="2" stroke-linecap="round" stroke-miterlimit="10" stroke-dasharray="5,5" x1="166.7" y1="268.9" x2="166.7" y2="538.9"/>
		
			<line fill="none" stroke="#8FC7ED" stroke-width="2" stroke-linecap="round" stroke-miterlimit="10" x1="166.7" y1="542.2" x2="166.7" y2="544.4"/>
	</g>
</g>
<g>
	<g>
		
			<line fill="none" stroke="#8FC7ED" stroke-width="2" stroke-linecap="round" stroke-miterlimit="10" x1="200" y1="261.1" x2="200" y2="264.4"/>
		
			<line fill="none" stroke="#8FC7ED" stroke-width="2" stroke-linecap="round" stroke-miterlimit="10" stroke-dasharray="5,5" x1="200" y1="268.9" x2="200" y2="538.9"/>
		
			<line fill="none" stroke="#8FC7ED" stroke-width="2" stroke-linecap="round" stroke-miterlimit="10" x1="200" y1="542.2" x2="200" y2="544.4"/>
	</g>
</g>
<g>
	<g>
		
			<line fill="none" stroke="#8FC7ED" stroke-width="2" stroke-linecap="round" stroke-miterlimit="10" x1="233.3" y1="261.1" x2="233.3" y2="264.4"/>
		
			<line fill="none" stroke="#8FC7ED" stroke-width="2" stroke-linecap="round" stroke-miterlimit="10" stroke-dasharray="5,5" x1="233.3" y1="268.9" x2="233.3" y2="538.9"/>
		
			<line fill="none" stroke="#8FC7ED" stroke-width="2" stroke-linecap="round" stroke-miterlimit="10" x1="233.3" y1="542.2" x2="233.3" y2="544.4"/>
	</g>
</g>
<g>
	<g>
		
			<line fill="none" stroke="#8FC7ED" stroke-width="2" stroke-linecap="round" stroke-miterlimit="10" x1="266.7" y1="261.1" x2="266.7" y2="264.4"/>
		
			<line fill="none" stroke="#8FC7ED" stroke-width="2" stroke-linecap="round" stroke-miterlimit="10" stroke-dasharray="5,5" x1="266.7" y1="268.9" x2="266.7" y2="538.9"/>
		
			<line fill="none" stroke="#8FC7ED" stroke-width="2" stroke-linecap="round" stroke-miterlimit="10" x1="266.7" y1="542.2" x2="266.7" y2="544.4"/>
	</g>
</g>
<g>
	<g>
		
			<line fill="none" stroke="#8FC7ED" stroke-width="2" stroke-linecap="round" stroke-miterlimit="10" x1="300" y1="261.1" x2="300" y2="264.4"/>
		
			<line fill="none" stroke="#8FC7ED" stroke-width="2" stroke-linecap="round" stroke-miterlimit="10" stroke-dasharray="5,5" x1="300" y1="268.9" x2="300" y2="538.9"/>
		
			<line fill="none" stroke="#8FC7ED" stroke-width="2" stroke-linecap="round" stroke-miterlimit="10" x1="300" y1="542.2" x2="300" y2="544.4"/>
	</g>
</g>
<g>
	<path fill="none" d="M333.1,544.8"/>
</g>
<g>
	<path fill="none" d="M333.1,228.1"/>
</g>
<g>
	<path fill="none" d="M33.9,244.2"/>
</g>
<g>
	<path fill="none" d="M350.6,244.2"/>
</g>
<g>
	<g>
		
			<line fill="none" stroke="#8FC7ED" stroke-width="2" stroke-linecap="round" stroke-miterlimit="10" x1="317.8" y1="277.8" x2="314.4" y2="277.8"/>
		
			<line fill="none" stroke="#8FC7ED" stroke-width="2" stroke-linecap="round" stroke-miterlimit="10" stroke-dasharray="5,5" x1="308.9" y1="277.8" x2="38.9" y2="277.8"/>
		
			<line fill="none" stroke="#8FC7ED" stroke-width="2" stroke-linecap="round" stroke-miterlimit="10" x1="36.7" y1="277.8" x2="34.4" y2="277.8"/>
	</g>
</g>
<g>
	<g>
		
			<line fill="none" stroke="#8FC7ED" stroke-width="2" stroke-linecap="round" stroke-miterlimit="10" x1="317.8" y1="311.1" x2="314.4" y2="311.1"/>
		
			<line fill="none" stroke="#8FC7ED" stroke-width="2" stroke-linecap="round" stroke-miterlimit="10" stroke-dasharray="5,5" x1="308.9" y1="311.1" x2="38.9" y2="311.1"/>
		
			<line fill="none" stroke="#8FC7ED" stroke-width="2" stroke-linecap="round" stroke-miterlimit="10" x1="36.7" y1="311.1" x2="34.4" y2="311.1"/>
	</g>
</g>
<g>
	<g>
		
			<line fill="none" stroke="#8FC7ED" stroke-width="2" stroke-linecap="round" stroke-miterlimit="10" x1="317.8" y1="344.4" x2="314.4" y2="344.4"/>
		
			<line fill="none" stroke="#8FC7ED" stroke-width="2" stroke-linecap="round" stroke-miterlimit="10" stroke-dasharray="5,5" x1="308.9" y1="344.4" x2="38.9" y2="344.4"/>
		
			<line fill="none" stroke="#8FC7ED" stroke-width="2" stroke-linecap="round" stroke-miterlimit="10" x1="36.7" y1="344.4" x2="34.4" y2="344.4"/>
	</g>
</g>
<g>
	<g>
		
			<line fill="none" stroke="#8FC7ED" stroke-width="2" stroke-linecap="round" stroke-miterlimit="10" x1="317.8" y1="377.8" x2="314.4" y2="377.8"/>
		
			<line fill="none" stroke="#8FC7ED" stroke-width="2" stroke-linecap="round" stroke-miterlimit="10" stroke-dasharray="5,5" x1="308.9" y1="377.8" x2="38.9" y2="377.8"/>
		
			<line fill="none" stroke="#8FC7ED" stroke-width="2" stroke-linecap="round" stroke-miterlimit="10" x1="36.7" y1="377.8" x2="34.4" y2="377.8"/>
	</g>
</g>
<g>
	<g>
		
			<line fill="none" stroke="#8FC7ED" stroke-width="2" stroke-linecap="round" stroke-miterlimit="10" x1="317.8" y1="411.1" x2="314.4" y2="411.1"/>
		
			<line fill="none" stroke="#8FC7ED" stroke-width="2" stroke-linecap="round" stroke-miterlimit="10" stroke-dasharray="5,5" x1="308.9" y1="411.1" x2="38.9" y2="411.1"/>
		
			<line fill="none" stroke="#8FC7ED" stroke-width="2" stroke-linecap="round" stroke-miterlimit="10" x1="36.7" y1="411.1" x2="34.4" y2="411.1"/>
	</g>
</g>
<g>
	<g>
		
			<line fill="none" stroke="#8FC7ED" stroke-width="2" stroke-linecap="round" stroke-miterlimit="10" x1="317.8" y1="444.4" x2="314.4" y2="444.4"/>
		
			<line fill="none" stroke="#8FC7ED" stroke-width="2" stroke-linecap="round" stroke-miterlimit="10" stroke-dasharray="5,5" x1="308.9" y1="444.4" x2="38.9" y2="444.4"/>
		
			<line fill="none" stroke="#8FC7ED" stroke-width="2" stroke-linecap="round" stroke-miterlimit="10" x1="36.7" y1="444.4" x2="34.4" y2="444.4"/>
	</g>
</g>
<g>
	<g>
		
			<line fill="none" stroke="#8FC7ED" stroke-width="2" stroke-linecap="round" stroke-miterlimit="10" x1="317.8" y1="477.8" x2="314.4" y2="477.8"/>
		
			<line fill="none" stroke="#8FC7ED" stroke-width="2" stroke-linecap="round" stroke-miterlimit="10" stroke-dasharray="5,5" x1="308.9" y1="477.8" x2="38.9" y2="477.8"/>
		
			<line fill="none" stroke="#8FC7ED" stroke-width="2" stroke-linecap="round" stroke-miterlimit="10" x1="36.7" y1="477.8" x2="34.4" y2="477.8"/>
	</g>
</g>
<g>
	<g>
		
			<line fill="none" stroke="#8FC7ED" stroke-width="2" stroke-linecap="round" stroke-miterlimit="10" x1="316.7" y1="511.1" x2="314.4" y2="511.1"/>
		
			<line fill="none" stroke="#8FC7ED" stroke-width="2" stroke-linecap="round" stroke-miterlimit="10" stroke-dasharray="5,5" x1="308.9" y1="511.1" x2="38.9" y2="511.1"/>
		
			<line fill="none" stroke="#8FC7ED" stroke-width="2" stroke-linecap="round" stroke-miterlimit="10" x1="36.7" y1="511.1" x2="33.3" y2="511.1"/>
	</g>
</g>
<g>
	<line fill="none" x1="33.3" y1="544.4" x2="33.9" y2="226.7"/>
	<g>
		
			<line fill="none" stroke="#294270" stroke-width="4" stroke-linecap="round" stroke-miterlimit="10" x1="33.3" y1="544.4" x2="33.9" y2="242.3"/>
		<g>
			<polygon fill="#294270" points="33.9,226.7 42.9,248.8 33.9,243.6 24.8,248.8 			"/>
		</g>
	</g>
</g>
<g>
	<line fill="none" x1="33.3" y1="544.4" x2="333.3" y2="544.4"/>
	<g>
		
			<line fill="none" stroke="#294270" stroke-width="4" stroke-linecap="round" stroke-miterlimit="10" x1="33.3" y1="544.4" x2="317.8" y2="544.4"/>
		<g>
			<polygon fill="#294270" points="333.1,544.4 311,553.4 316.2,544.4 311,535.4 			"/>
		</g>
	</g>
</g>
<g>
	<path fill="none" d="M200,544.4"/>
</g>
<g>
	<path fill="none" d="M233.3,544.4"/>
</g>
<g>
	<path fill="none" d="M266.7,544.4"/>
</g>
<g>
	<path fill="none" d="M299.7,543.1"/>
</g>
<g>
	<path fill="none" d="M331.1,533.3"/>
</g>
<line fill="none" stroke="#737370" stroke-width="4" stroke-linecap="round" stroke-miterlimit="10" x1="66.7" y1="477.8" x2="66.7" y2="377.8"/>
<line fill="none" stroke="#737370" stroke-width="4" stroke-linecap="round" stroke-miterlimit="10" x1="66.7" y1="377.8" x2="166.7" y2="311.1"/>
<line fill="none" stroke="#737370" stroke-width="4" stroke-linecap="round" stroke-miterlimit="10" x1="166.7" y1="311.1" x2="266.7" y2="377.8"/>
<line fill="none" stroke="#737370" stroke-width="4" stroke-linecap="round" stroke-miterlimit="10" x1="866.7" y1="377.8" x2="1066.7" y2="377.8"/>
<line fill="none" stroke="#737370" stroke-width="4" stroke-linecap="round" stroke-miterlimit="10" x1="66.7" y1="477.8" x2="266.7" y2="477.8"/>
<g>
	<g>
		
			<line fill="none" stroke="#8FC7ED" stroke-width="2" stroke-linecap="round" stroke-miterlimit="10" x1="467.8" y1="261.1" x2="467.8" y2="264.4"/>
		
			<line fill="none" stroke="#8FC7ED" stroke-width="2" stroke-linecap="round" stroke-miterlimit="10" stroke-dasharray="5,5" x1="467.8" y1="268.9" x2="467.8" y2="538.9"/>
		
			<line fill="none" stroke="#8FC7ED" stroke-width="2" stroke-linecap="round" stroke-miterlimit="10" x1="467.8" y1="542.2" x2="467.8" y2="544.4"/>
	</g>
</g>
<g>
	<g>
		
			<line fill="none" stroke="#8FC7ED" stroke-width="2" stroke-linecap="round" stroke-miterlimit="10" x1="501.1" y1="261.1" x2="501.1" y2="264.4"/>
		
			<line fill="none" stroke="#8FC7ED" stroke-width="2" stroke-linecap="round" stroke-miterlimit="10" stroke-dasharray="5,5" x1="501.1" y1="268.9" x2="501.1" y2="538.9"/>
		
			<line fill="none" stroke="#8FC7ED" stroke-width="2" stroke-linecap="round" stroke-miterlimit="10" x1="501.1" y1="542.2" x2="501.1" y2="544.4"/>
	</g>
</g>
<g>
	<g>
		
			<line fill="none" stroke="#8FC7ED" stroke-width="2" stroke-linecap="round" stroke-miterlimit="10" x1="534.4" y1="261.1" x2="534.4" y2="264.4"/>
		
			<line fill="none" stroke="#8FC7ED" stroke-width="2" stroke-linecap="round" stroke-miterlimit="10" stroke-dasharray="5,5" x1="534.4" y1="268.9" x2="534.4" y2="538.9"/>
		
			<line fill="none" stroke="#8FC7ED" stroke-width="2" stroke-linecap="round" stroke-miterlimit="10" x1="534.4" y1="542.2" x2="534.4" y2="544.4"/>
	</g>
</g>
<g>
	<g>
		
			<line fill="none" stroke="#8FC7ED" stroke-width="2" stroke-linecap="round" stroke-miterlimit="10" x1="567.8" y1="261.1" x2="567.8" y2="264.4"/>
		
			<line fill="none" stroke="#8FC7ED" stroke-width="2" stroke-linecap="round" stroke-miterlimit="10" stroke-dasharray="5,5" x1="567.8" y1="268.9" x2="567.8" y2="538.9"/>
		
			<line fill="none" stroke="#8FC7ED" stroke-width="2" stroke-linecap="round" stroke-miterlimit="10" x1="567.8" y1="542.2" x2="567.8" y2="544.4"/>
	</g>
</g>
<g>
	<g>
		
			<line fill="none" stroke="#8FC7ED" stroke-width="2" stroke-linecap="round" stroke-miterlimit="10" x1="601.1" y1="261.1" x2="601.1" y2="264.4"/>
		
			<line fill="none" stroke="#8FC7ED" stroke-width="2" stroke-linecap="round" stroke-miterlimit="10" stroke-dasharray="5,5" x1="601.1" y1="268.9" x2="601.1" y2="538.9"/>
		
			<line fill="none" stroke="#8FC7ED" stroke-width="2" stroke-linecap="round" stroke-miterlimit="10" x1="601.1" y1="542.2" x2="601.1" y2="544.4"/>
	</g>
</g>
<g>
	<g>
		
			<line fill="none" stroke="#8FC7ED" stroke-width="2" stroke-linecap="round" stroke-miterlimit="10" x1="634.4" y1="261.1" x2="634.4" y2="264.4"/>
		
			<line fill="none" stroke="#8FC7ED" stroke-width="2" stroke-linecap="round" stroke-miterlimit="10" stroke-dasharray="5,5" x1="634.4" y1="268.9" x2="634.4" y2="538.9"/>
		
			<line fill="none" stroke="#8FC7ED" stroke-width="2" stroke-linecap="round" stroke-miterlimit="10" x1="634.4" y1="542.2" x2="634.4" y2="544.4"/>
	</g>
</g>
<g>
	<g>
		
			<line fill="none" stroke="#8FC7ED" stroke-width="2" stroke-linecap="round" stroke-miterlimit="10" x1="667.8" y1="261.1" x2="667.8" y2="264.4"/>
		
			<line fill="none" stroke="#8FC7ED" stroke-width="2" stroke-linecap="round" stroke-miterlimit="10" stroke-dasharray="5,5" x1="667.8" y1="268.9" x2="667.8" y2="538.9"/>
		
			<line fill="none" stroke="#8FC7ED" stroke-width="2" stroke-linecap="round" stroke-miterlimit="10" x1="667.8" y1="542.2" x2="667.8" y2="544.4"/>
	</g>
</g>
<g>
	<g>
		
			<line fill="none" stroke="#8FC7ED" stroke-width="2" stroke-linecap="round" stroke-miterlimit="10" x1="701.1" y1="261.1" x2="701.1" y2="264.4"/>
		
			<line fill="none" stroke="#8FC7ED" stroke-width="2" stroke-linecap="round" stroke-miterlimit="10" stroke-dasharray="5,5" x1="701.1" y1="268.9" x2="701.1" y2="538.9"/>
		
			<line fill="none" stroke="#8FC7ED" stroke-width="2" stroke-linecap="round" stroke-miterlimit="10" x1="701.1" y1="542.2" x2="701.1" y2="544.4"/>
	</g>
</g>
<g>
	<path fill="none" d="M634.2,544.8"/>
</g>
<g>
	<path fill="none" d="M634.2,228.1"/>
</g>
<g>
	<path fill="none" d="M435,244.2"/>
</g>
<g>
	<path fill="none" d="M651.7,244.2"/>
</g>
<g>
	<g>
		
			<line fill="none" stroke="#8FC7ED" stroke-width="2" stroke-linecap="round" stroke-miterlimit="10" x1="718.9" y1="277.8" x2="715.6" y2="277.8"/>
		
			<line fill="none" stroke="#8FC7ED" stroke-width="2" stroke-linecap="round" stroke-miterlimit="10" stroke-dasharray="5,5" x1="710" y1="277.8" x2="440" y2="277.8"/>
		
			<line fill="none" stroke="#8FC7ED" stroke-width="2" stroke-linecap="round" stroke-miterlimit="10" x1="437.8" y1="277.8" x2="435.6" y2="277.8"/>
	</g>
</g>
<g>
	<g>
		
			<line fill="none" stroke="#8FC7ED" stroke-width="2" stroke-linecap="round" stroke-miterlimit="10" x1="718.9" y1="311.1" x2="715.6" y2="311.1"/>
		
			<line fill="none" stroke="#8FC7ED" stroke-width="2" stroke-linecap="round" stroke-miterlimit="10" stroke-dasharray="5,5" x1="710" y1="311.1" x2="440" y2="311.1"/>
		
			<line fill="none" stroke="#8FC7ED" stroke-width="2" stroke-linecap="round" stroke-miterlimit="10" x1="437.8" y1="311.1" x2="435.6" y2="311.1"/>
	</g>
</g>
<g>
	<g>
		
			<line fill="none" stroke="#8FC7ED" stroke-width="2" stroke-linecap="round" stroke-miterlimit="10" x1="718.9" y1="344.4" x2="715.6" y2="344.4"/>
		
			<line fill="none" stroke="#8FC7ED" stroke-width="2" stroke-linecap="round" stroke-miterlimit="10" stroke-dasharray="5,5" x1="710" y1="344.4" x2="440" y2="344.4"/>
		
			<line fill="none" stroke="#8FC7ED" stroke-width="2" stroke-linecap="round" stroke-miterlimit="10" x1="437.8" y1="344.4" x2="435.6" y2="344.4"/>
	</g>
</g>
<g>
	<g>
		
			<line fill="none" stroke="#8FC7ED" stroke-width="2" stroke-linecap="round" stroke-miterlimit="10" x1="718.9" y1="377.8" x2="715.6" y2="377.8"/>
		
			<line fill="none" stroke="#8FC7ED" stroke-width="2" stroke-linecap="round" stroke-miterlimit="10" stroke-dasharray="5,5" x1="710" y1="377.8" x2="440" y2="377.8"/>
		
			<line fill="none" stroke="#8FC7ED" stroke-width="2" stroke-linecap="round" stroke-miterlimit="10" x1="437.8" y1="377.8" x2="435.6" y2="377.8"/>
	</g>
</g>
<g>
	<g>
		
			<line fill="none" stroke="#8FC7ED" stroke-width="2" stroke-linecap="round" stroke-miterlimit="10" x1="718.9" y1="411.1" x2="715.6" y2="411.1"/>
		
			<line fill="none" stroke="#8FC7ED" stroke-width="2" stroke-linecap="round" stroke-miterlimit="10" stroke-dasharray="5,5" x1="710" y1="411.1" x2="440" y2="411.1"/>
		
			<line fill="none" stroke="#8FC7ED" stroke-width="2" stroke-linecap="round" stroke-miterlimit="10" x1="437.8" y1="411.1" x2="435.6" y2="411.1"/>
	</g>
</g>
<g>
	<g>
		
			<line fill="none" stroke="#8FC7ED" stroke-width="2" stroke-linecap="round" stroke-miterlimit="10" x1="718.9" y1="444.4" x2="715.6" y2="444.4"/>
		
			<line fill="none" stroke="#8FC7ED" stroke-width="2" stroke-linecap="round" stroke-miterlimit="10" stroke-dasharray="5,5" x1="710" y1="444.4" x2="440" y2="444.4"/>
		
			<line fill="none" stroke="#8FC7ED" stroke-width="2" stroke-linecap="round" stroke-miterlimit="10" x1="437.8" y1="444.4" x2="435.6" y2="444.4"/>
	</g>
</g>
<g>
	<g>
		
			<line fill="none" stroke="#8FC7ED" stroke-width="2" stroke-linecap="round" stroke-miterlimit="10" x1="718.9" y1="477.8" x2="715.6" y2="477.8"/>
		
			<line fill="none" stroke="#8FC7ED" stroke-width="2" stroke-linecap="round" stroke-miterlimit="10" stroke-dasharray="5,5" x1="710" y1="477.8" x2="440" y2="477.8"/>
		
			<line fill="none" stroke="#8FC7ED" stroke-width="2" stroke-linecap="round" stroke-miterlimit="10" x1="437.8" y1="477.8" x2="435.6" y2="477.8"/>
	</g>
</g>
<g>
	<g>
		
			<line fill="none" stroke="#8FC7ED" stroke-width="2" stroke-linecap="round" stroke-miterlimit="10" x1="717.8" y1="511.1" x2="715.6" y2="511.1"/>
		
			<line fill="none" stroke="#8FC7ED" stroke-width="2" stroke-linecap="round" stroke-miterlimit="10" stroke-dasharray="5,5" x1="710" y1="511.1" x2="440" y2="511.1"/>
		
			<line fill="none" stroke="#8FC7ED" stroke-width="2" stroke-linecap="round" stroke-miterlimit="10" x1="437.8" y1="511.1" x2="434.4" y2="511.1"/>
	</g>
</g>
<g>
	<line fill="none" x1="434.4" y1="544.4" x2="435" y2="226.7"/>
	<g>
		
			<line fill="none" stroke="#294270" stroke-width="4" stroke-linecap="round" stroke-miterlimit="10" x1="434.4" y1="544.4" x2="435" y2="242.3"/>
		<g>
			<polygon fill="#294270" points="435,226.7 444,248.8 435,243.6 425.9,248.8 			"/>
		</g>
	</g>
</g>
<g>
	<line fill="none" x1="434.4" y1="544.4" x2="734.4" y2="544.4"/>
	<g>
		
			<line fill="none" stroke="#294270" stroke-width="4" stroke-linecap="round" stroke-miterlimit="10" x1="434.4" y1="544.4" x2="718.9" y2="544.4"/>
		<g>
			<polygon fill="#294270" points="734.2,544.4 712.1,553.4 717.3,544.4 712.1,535.4 			"/>
		</g>
	</g>
</g>
<g>
	<path fill="none" d="M601.1,544.4"/>
</g>
<g>
	<path fill="none" d="M634.4,544.4"/>
</g>
<g>
	<path fill="none" d="M667.8,544.4"/>
</g>
<g>
	<path fill="none" d="M700.8,543.1"/>
</g>
<g>
	<path fill="none" d="M632.2,533.3"/>
</g>
<line fill="none" stroke="#737370" stroke-width="4" stroke-linecap="round" stroke-miterlimit="10" x1="467.8" y1="477.8" x2="467.8" y2="377.8"/>
<line fill="none" stroke="#737370" stroke-width="4" stroke-linecap="round" stroke-miterlimit="10" x1="467.8" y1="377.8" x2="567.8" y2="311.1"/>
<line fill="none" stroke="#737370" stroke-width="4" stroke-linecap="round" stroke-miterlimit="10" x1="567.8" y1="311.1" x2="667.8" y2="377.8"/>
<line fill="none" stroke="#737370" stroke-width="4" stroke-linecap="round" stroke-miterlimit="10" x1="667.8" y1="377.8" x2="667.8" y2="477.8"/>
<line fill="none" stroke="#737370" stroke-width="4" stroke-linecap="round" stroke-miterlimit="10" x1="667.8" y1="477.8" x2="467.8" y2="377.8"/>
<line fill="none" stroke="#737370" stroke-width="4" stroke-linecap="round" stroke-miterlimit="10" x1="667.8" y1="377.8" x2="467.8" y2="477.8"/>
<line fill="none" stroke="#737370" stroke-width="4" stroke-linecap="round" stroke-miterlimit="10" x1="467.8" y1="477.8" x2="667.8" y2="477.8"/>
<g>
	<g>
		
			<line fill="none" stroke="#8FC7ED" stroke-width="2" stroke-linecap="round" stroke-miterlimit="10" x1="866.7" y1="261.1" x2="866.7" y2="264.4"/>
		
			<line fill="none" stroke="#8FC7ED" stroke-width="2" stroke-linecap="round" stroke-miterlimit="10" stroke-dasharray="5,5" x1="866.7" y1="268.9" x2="866.7" y2="538.9"/>
		
			<line fill="none" stroke="#8FC7ED" stroke-width="2" stroke-linecap="round" stroke-miterlimit="10" x1="866.7" y1="542.2" x2="866.7" y2="544.4"/>
	</g>
</g>
<g>
	<g>
		
			<line fill="none" stroke="#8FC7ED" stroke-width="2" stroke-linecap="round" stroke-miterlimit="10" x1="900" y1="261.1" x2="900" y2="264.4"/>
		
			<line fill="none" stroke="#8FC7ED" stroke-width="2" stroke-linecap="round" stroke-miterlimit="10" stroke-dasharray="5,5" x1="900" y1="268.9" x2="900" y2="538.9"/>
		
			<line fill="none" stroke="#8FC7ED" stroke-width="2" stroke-linecap="round" stroke-miterlimit="10" x1="900" y1="542.2" x2="900" y2="544.4"/>
	</g>
</g>
<g>
	<g>
		
			<line fill="none" stroke="#8FC7ED" stroke-width="2" stroke-linecap="round" stroke-miterlimit="10" x1="933.3" y1="261.1" x2="933.3" y2="264.4"/>
		
			<line fill="none" stroke="#8FC7ED" stroke-width="2" stroke-linecap="round" stroke-miterlimit="10" stroke-dasharray="5,5" x1="933.3" y1="268.9" x2="933.3" y2="538.9"/>
		
			<line fill="none" stroke="#8FC7ED" stroke-width="2" stroke-linecap="round" stroke-miterlimit="10" x1="933.3" y1="542.2" x2="933.3" y2="544.4"/>
	</g>
</g>
<g>
	<g>
		
			<line fill="none" stroke="#8FC7ED" stroke-width="2" stroke-linecap="round" stroke-miterlimit="10" x1="966.7" y1="261.1" x2="966.7" y2="264.4"/>
		
			<line fill="none" stroke="#8FC7ED" stroke-width="2" stroke-linecap="round" stroke-miterlimit="10" stroke-dasharray="5,5" x1="966.7" y1="268.9" x2="966.7" y2="538.9"/>
		
			<line fill="none" stroke="#8FC7ED" stroke-width="2" stroke-linecap="round" stroke-miterlimit="10" x1="966.7" y1="542.2" x2="966.7" y2="544.4"/>
	</g>
</g>
<g>
	<g>
		
			<line fill="none" stroke="#8FC7ED" stroke-width="2" stroke-linecap="round" stroke-miterlimit="10" x1="1000" y1="261.1" x2="1000" y2="264.4"/>
		
			<line fill="none" stroke="#8FC7ED" stroke-width="2" stroke-linecap="round" stroke-miterlimit="10" stroke-dasharray="5,5" x1="1000" y1="268.9" x2="1000" y2="538.9"/>
		
			<line fill="none" stroke="#8FC7ED" stroke-width="2" stroke-linecap="round" stroke-miterlimit="10" x1="1000" y1="542.2" x2="1000" y2="544.4"/>
	</g>
</g>
<g>
	<g>
		
			<line fill="none" stroke="#8FC7ED" stroke-width="2" stroke-linecap="round" stroke-miterlimit="10" x1="1033.3" y1="261.1" x2="1033.3" y2="264.4"/>
		
			<line fill="none" stroke="#8FC7ED" stroke-width="2" stroke-linecap="round" stroke-miterlimit="10" stroke-dasharray="5,5" x1="1033.3" y1="268.9" x2="1033.3" y2="538.9"/>
		
			<line fill="none" stroke="#8FC7ED" stroke-width="2" stroke-linecap="round" stroke-miterlimit="10" x1="1033.3" y1="542.2" x2="1033.3" y2="544.4"/>
	</g>
</g>
<g>
	<g>
		
			<line fill="none" stroke="#8FC7ED" stroke-width="2" stroke-linecap="round" stroke-miterlimit="10" x1="1066.7" y1="261.1" x2="1066.7" y2="264.4"/>
		
			<line fill="none" stroke="#8FC7ED" stroke-width="2" stroke-linecap="round" stroke-miterlimit="10" stroke-dasharray="5,5" x1="1066.7" y1="268.9" x2="1066.7" y2="538.9"/>
		
			<line fill="none" stroke="#8FC7ED" stroke-width="2" stroke-linecap="round" stroke-miterlimit="10" x1="1066.7" y1="542.2" x2="1066.7" y2="544.4"/>
	</g>
</g>
<g>
	<g>
		
			<line fill="none" stroke="#8FC7ED" stroke-width="2" stroke-linecap="round" stroke-miterlimit="10" x1="1100" y1="261.1" x2="1100" y2="264.4"/>
		
			<line fill="none" stroke="#8FC7ED" stroke-width="2" stroke-linecap="round" stroke-miterlimit="10" stroke-dasharray="5,5" x1="1100" y1="268.9" x2="1100" y2="538.9"/>
		
			<line fill="none" stroke="#8FC7ED" stroke-width="2" stroke-linecap="round" stroke-miterlimit="10" x1="1100" y1="542.2" x2="1100" y2="544.4"/>
	</g>
</g>
<g>
	<path fill="none" d="M1133.1,544.8"/>
</g>
<g>
	<path fill="none" d="M1133.1,228.1"/>
</g>
<g>
	<path fill="none" d="M833.9,244.2"/>
</g>
<g>
	<path fill="none" d="M1183.9,244.2"/>
</g>
<g>
	<g>
		
			<line fill="none" stroke="#8FC7ED" stroke-width="2" stroke-linecap="round" stroke-miterlimit="10" x1="1117.8" y1="277.8" x2="1114.4" y2="277.8"/>
		
			<line fill="none" stroke="#8FC7ED" stroke-width="2" stroke-linecap="round" stroke-miterlimit="10" stroke-dasharray="5,5" x1="1108.9" y1="277.8" x2="838.9" y2="277.8"/>
		
			<line fill="none" stroke="#8FC7ED" stroke-width="2" stroke-linecap="round" stroke-miterlimit="10" x1="836.7" y1="277.8" x2="834.4" y2="277.8"/>
	</g>
</g>
<g>
	<g>
		
			<line fill="none" stroke="#8FC7ED" stroke-width="2" stroke-linecap="round" stroke-miterlimit="10" x1="1117.8" y1="311.1" x2="1114.4" y2="311.1"/>
		
			<line fill="none" stroke="#8FC7ED" stroke-width="2" stroke-linecap="round" stroke-miterlimit="10" stroke-dasharray="5,5" x1="1108.9" y1="311.1" x2="838.9" y2="311.1"/>
		
			<line fill="none" stroke="#8FC7ED" stroke-width="2" stroke-linecap="round" stroke-miterlimit="10" x1="836.7" y1="311.1" x2="834.4" y2="311.1"/>
	</g>
</g>
<g>
	<g>
		
			<line fill="none" stroke="#8FC7ED" stroke-width="2" stroke-linecap="round" stroke-miterlimit="10" x1="1117.8" y1="344.4" x2="1114.4" y2="344.4"/>
		
			<line fill="none" stroke="#8FC7ED" stroke-width="2" stroke-linecap="round" stroke-miterlimit="10" stroke-dasharray="5,5" x1="1108.9" y1="344.4" x2="838.9" y2="344.4"/>
		
			<line fill="none" stroke="#8FC7ED" stroke-width="2" stroke-linecap="round" stroke-miterlimit="10" x1="836.7" y1="344.4" x2="834.4" y2="344.4"/>
	</g>
</g>
<g>
	<g>
		
			<line fill="none" stroke="#8FC7ED" stroke-width="2" stroke-linecap="round" stroke-miterlimit="10" x1="1117.8" y1="411.1" x2="1114.4" y2="411.1"/>
		
			<line fill="none" stroke="#8FC7ED" stroke-width="2" stroke-linecap="round" stroke-miterlimit="10" stroke-dasharray="5,5" x1="1108.9" y1="411.1" x2="838.9" y2="411.1"/>
		
			<line fill="none" stroke="#8FC7ED" stroke-width="2" stroke-linecap="round" stroke-miterlimit="10" x1="836.7" y1="411.1" x2="834.4" y2="411.1"/>
	</g>
</g>
<g>
	<g>
		
			<line fill="none" stroke="#8FC7ED" stroke-width="2" stroke-linecap="round" stroke-miterlimit="10" x1="1117.8" y1="444.4" x2="1114.4" y2="444.4"/>
		
			<line fill="none" stroke="#8FC7ED" stroke-width="2" stroke-linecap="round" stroke-miterlimit="10" stroke-dasharray="5,5" x1="1108.9" y1="444.4" x2="838.9" y2="444.4"/>
		
			<line fill="none" stroke="#8FC7ED" stroke-width="2" stroke-linecap="round" stroke-miterlimit="10" x1="836.7" y1="444.4" x2="834.4" y2="444.4"/>
	</g>
</g>
<g>
	<g>
		
			<line fill="none" stroke="#8FC7ED" stroke-width="2" stroke-linecap="round" stroke-miterlimit="10" x1="1117.8" y1="477.8" x2="1114.4" y2="477.8"/>
		
			<line fill="none" stroke="#8FC7ED" stroke-width="2" stroke-linecap="round" stroke-miterlimit="10" stroke-dasharray="5,5" x1="1108.9" y1="477.8" x2="838.9" y2="477.8"/>
		
			<line fill="none" stroke="#8FC7ED" stroke-width="2" stroke-linecap="round" stroke-miterlimit="10" x1="836.7" y1="477.8" x2="834.4" y2="477.8"/>
	</g>
</g>
<g>
	<g>
		
			<line fill="none" stroke="#8FC7ED" stroke-width="2" stroke-linecap="round" stroke-miterlimit="10" x1="1116.7" y1="511.1" x2="1114.4" y2="511.1"/>
		
			<line fill="none" stroke="#8FC7ED" stroke-width="2" stroke-linecap="round" stroke-miterlimit="10" stroke-dasharray="5,5" x1="1108.9" y1="511.1" x2="838.9" y2="511.1"/>
		
			<line fill="none" stroke="#8FC7ED" stroke-width="2" stroke-linecap="round" stroke-miterlimit="10" x1="836.7" y1="511.1" x2="833.3" y2="511.1"/>
	</g>
</g>
<g>
	<line fill="none" x1="833.3" y1="544.4" x2="833.9" y2="226.7"/>
	<g>
		
			<line fill="none" stroke="#294270" stroke-width="4" stroke-linecap="round" stroke-miterlimit="10" x1="833.3" y1="544.4" x2="833.9" y2="242.3"/>
		<g>
			<polygon fill="#294270" points="833.9,226.7 842.9,248.8 833.9,243.6 824.8,248.8 			"/>
		</g>
	</g>
</g>
<g>
	<line fill="none" x1="833.3" y1="544.4" x2="1133.3" y2="544.4"/>
	<g>
		
			<line fill="none" stroke="#294270" stroke-width="4" stroke-linecap="round" stroke-miterlimit="10" x1="833.3" y1="544.4" x2="1117.8" y2="544.4"/>
		<g>
			<polygon fill="#294270" points="1133.1,544.4 1111,553.4 1116.2,544.4 1111,535.4 			"/>
		</g>
	</g>
</g>
<g>
	<path fill="none" d="M1000,544.4"/>
</g>
<g>
	<path fill="none" d="M1033.3,544.4"/>
</g>
<g>
	<path fill="none" d="M1066.7,544.4"/>
</g>
<g>
	<path fill="none" d="M1099.7,543.1"/>
</g>
<g>
	<path fill="none" d="M1131.1,533.3"/>
</g>
<line fill="none" stroke="#737370" stroke-width="4" stroke-linecap="round" stroke-miterlimit="10" x1="866.7" y1="477.8" x2="866.7" y2="377.8"/>
<line fill="none" stroke="#737370" stroke-width="4" stroke-linecap="round" stroke-miterlimit="10" x1="866.7" y1="377.8" x2="966.7" y2="311.1"/>
<line fill="none" stroke="#737370" stroke-width="4" stroke-linecap="round" stroke-miterlimit="10" x1="966.7" y1="311.1" x2="1066.7" y2="377.8"/>
<line fill="none" stroke="#737370" stroke-width="4" stroke-linecap="round" stroke-miterlimit="10" x1="1066.7" y1="377.8" x2="1066.7" y2="477.8"/>
<line fill="none" stroke="#737370" stroke-width="4" stroke-linecap="round" stroke-miterlimit="10" x1="866.7" y1="477.8" x2="1066.7" y2="477.8"/>
<text transform="matrix(1 0 0 1 133.333 583.333)" fill="#294270" font-family="'Roboto-Bold'" font-size="40">Ex.1</text>
<g>
	<path fill="#294270" d="M553.4,570.9h-11.8v8.1h13.8v4.4H536V555h19.4v4.4h-13.8v7.1h11.8V570.9z"/>
	<path fill="#294270" d="M566.4,568.9h0.1l3.2-6.7h6.4l-6.3,10.4l6.6,10.7H570l-3.4-7l-3.4,7h-6.4l6.6-10.7l-6.3-10.4h6.4
		L566.4,568.9z"/>
	<path fill="#294270" d="M585.2,583.3h-5.7v-5h5.7V583.3z"/>
	<path fill="#294270" d="M609.7,583.3h-19.4v-3.8l9.2-9.9c1.3-1.6,2.2-2.8,2.8-3.9c0.6-1.1,0.9-2,0.9-2.9c0-1.2-0.3-2.2-1-2.9
		c-0.7-0.7-1.6-1.1-2.8-1.1c-1.3,0-2.3,0.4-3,1.3s-1,2.1-1,3.6h-5.6v-0.1c-0.1-2.6,0.8-4.8,2.6-6.6c1.8-1.8,4.1-2.7,7.1-2.7
		c2.9,0,5.2,0.8,6.9,2.3s2.6,3.6,2.6,6.1c0,1.7-0.4,3.3-1.4,4.8c-1,1.4-2.6,3.3-4.7,5.7l-5.1,5.6v0.1h12L609.7,583.3L609.7,583.3z"
		/>
</g>
<text transform="matrix(1 0 0 1 933.333 583.333)" fill="#294270" font-family="'Roboto-Bold'" font-size="40">Ex.3</text>
<line fill="none" stroke="#737370" stroke-width="4" stroke-linecap="round" stroke-miterlimit="10" x1="1066.7" y1="477.8" x2="866.7" y2="377.8"/>
<line fill="none" stroke="#737370" stroke-width="4" stroke-linecap="round" stroke-miterlimit="10" x1="1066.7" y1="377.8" x2="866.7" y2="477.8"/>
</svg>
